# xmcd
#
# Track frame offsets:
#  150
#  13171
#  30080
#  47461
#  63422
#  79038
#  92539
#  107555
#  121875
#  136747
#  150588
#  165633
#  178045
#  189624
#  203975
#  217598
#  231992
#  248337
#
# Disc length: 3515 seconds
#
# Revision: 0
# Processed by: cddbd v1.5.1PL2 Copyright (c) Steve Scherf et al.
# Submitted via: Collectorz.com_Music_Collector 6.10
#
DISCID=d50db912
DTITLE=Toyota National Country Music Muster - Toyota Muster Rural Aid Appeal volumes 25,26,27,28 (2004) [CD1)
DYEAR=2004
DGENRE=
TTITLE0=Melinda Schneider - He Still Calls Her Angel
TTITLE1=Brendon Walmsley - Bed Of Roses
TTITLE2=Bushwackers - Neechworth Gaol
TTITLE3=Bill Bridge - LOvely Lonely Town
TTITLE4=Adam Kilpatrick - Big man
TTITLE5=Davidson Brothers - Stay All NIght
TTITLE6=Dinana Corcoran - I'll Fly Away
TTITLE7=Graeme Jensen - You'll Never Have A Broken Heart
TTITLE8=Matt Manning - You Gotta Go West Young Fella
TTITLE9=Peterb Pratt - When I First Laid Eyes On You
TTITLE10=Tom Maxwell - Bandy The Rodeo Clown
TTITLE11=Anita Ree - OLd Cow Bales
TTITLE12=LIndsay Butler - Aussie Mossie
TTITLE13=Ashley Cook - The Battle With The R....
TTITLE14=LIndsay Waddington - Cool Change
TTITLE15=Greg Williams - Keep The Dream Alive
TTITLE16=Shane Hogan - Under The Bonnet Again
TTITLE17=Shaza Leigh - Just My Way Of LIfe
EXTD=
EXTT0=
EXTT1=
EXTT2=
EXTT3=
EXTT4=
EXTT5=
EXTT6=
EXTT7=
EXTT8=
EXTT9=
EXTT10=
EXTT11=
EXTT12=
EXTT13=
EXTT14=
EXTT15=
EXTT16=
EXTT17=
PLAYORDER=
